<mxfile host="app.diagrams.net" modified="2021-01-06T11:36:12.876Z" agent="5.0 (Windows)" etag="AB-DRfJACCyRQO0-3vQ9" version="14.1.8" type="github">
  <diagram id="bwYI7TvKeoxW5Ph6_rZA" name="Page-1">
    <mxGraphModel dx="1108" dy="451" grid="1" gridSize="10" guides="1" tooltips="1" connect="1" arrows="1" fold="1" page="1" pageScale="1" pageWidth="827" pageHeight="1169" math="0" shadow="0">
      <root>
        <mxCell id="0" />
        <mxCell id="1" parent="0" />
        <mxCell id="u6mp_ib9Y299mShHshq8-1" value="EmployeeHome&#xa;PageView" style="shape=umlLifeline;perimeter=lifelinePerimeter;container=1;collapsible=0;recursiveResize=0;rounded=0;shadow=0;strokeWidth=1;" vertex="1" parent="1">
          <mxGeometry x="180" y="80" width="100" height="300" as="geometry" />
        </mxCell>
        <mxCell id="u6mp_ib9Y299mShHshq8-2" value="" style="points=[];perimeter=orthogonalPerimeter;rounded=0;shadow=0;strokeWidth=1;" vertex="1" parent="u6mp_ib9Y299mShHshq8-1">
          <mxGeometry x="45" y="70" width="10" height="190" as="geometry" />
        </mxCell>
        <mxCell id="u6mp_ib9Y299mShHshq8-3" value="ExportSalary&#xa;Controller" style="shape=umlLifeline;perimeter=lifelinePerimeter;container=1;collapsible=0;recursiveResize=0;rounded=0;shadow=0;strokeWidth=1;" vertex="1" parent="1">
          <mxGeometry x="364" y="80" width="100" height="300" as="geometry" />
        </mxCell>
        <mxCell id="u6mp_ib9Y299mShHshq8-4" value="" style="points=[];perimeter=orthogonalPerimeter;rounded=0;shadow=0;strokeWidth=1;" vertex="1" parent="u6mp_ib9Y299mShHshq8-3">
          <mxGeometry x="45" y="80" width="10" height="180" as="geometry" />
        </mxCell>
        <mxCell id="u6mp_ib9Y299mShHshq8-5" value="Employee" style="shape=umlActor;verticalLabelPosition=bottom;verticalAlign=top;html=1;outlineConnect=0;" vertex="1" parent="1">
          <mxGeometry x="50" y="70" width="30" height="60" as="geometry" />
        </mxCell>
        <mxCell id="u6mp_ib9Y299mShHshq8-6" value="Database" style="shape=umlLifeline;perimeter=lifelinePerimeter;container=1;collapsible=0;recursiveResize=0;rounded=0;shadow=0;strokeWidth=1;" vertex="1" parent="1">
          <mxGeometry x="530" y="80" width="100" height="300" as="geometry" />
        </mxCell>
        <mxCell id="u6mp_ib9Y299mShHshq8-7" value="" style="points=[];perimeter=orthogonalPerimeter;rounded=0;shadow=0;strokeWidth=1;" vertex="1" parent="u6mp_ib9Y299mShHshq8-6">
          <mxGeometry x="45" y="80" width="10" height="180" as="geometry" />
        </mxCell>
        <mxCell id="u6mp_ib9Y299mShHshq8-8" value="" style="points=[];perimeter=orthogonalPerimeter;rounded=0;shadow=0;strokeWidth=1;" vertex="1" parent="1">
          <mxGeometry x="60" y="150" width="10" height="190" as="geometry" />
        </mxCell>
        <mxCell id="u6mp_ib9Y299mShHshq8-9" value="click on show salary button" style="verticalAlign=bottom;endArrow=block;shadow=0;strokeWidth=1;" edge="1" parent="1" source="u6mp_ib9Y299mShHshq8-8" target="u6mp_ib9Y299mShHshq8-2">
          <mxGeometry relative="1" as="geometry">
            <mxPoint x="140" y="470" as="sourcePoint" />
            <mxPoint x="265" y="400" as="targetPoint" />
            <Array as="points">
              <mxPoint x="100" y="200" />
            </Array>
          </mxGeometry>
        </mxCell>
        <mxCell id="u6mp_ib9Y299mShHshq8-10" value="new CalculateSalaryController()" style="verticalAlign=bottom;endArrow=block;shadow=0;strokeWidth=1;" edge="1" parent="1" source="u6mp_ib9Y299mShHshq8-2" target="u6mp_ib9Y299mShHshq8-4">
          <mxGeometry relative="1" as="geometry">
            <mxPoint x="240" y="210" as="sourcePoint" />
            <mxPoint x="395" y="210" as="targetPoint" />
            <Array as="points">
              <mxPoint x="270" y="210" />
            </Array>
          </mxGeometry>
        </mxCell>
        <mxCell id="u6mp_ib9Y299mShHshq8-11" value="getEmployeeName()" style="verticalAlign=bottom;endArrow=block;shadow=0;strokeWidth=1;" edge="1" parent="1" source="u6mp_ib9Y299mShHshq8-4" target="u6mp_ib9Y299mShHshq8-7">
          <mxGeometry relative="1" as="geometry">
            <mxPoint x="400" y="229.57999999999998" as="sourcePoint" />
            <mxPoint x="574" y="229.57999999999998" as="targetPoint" />
            <Array as="points">
              <mxPoint x="435" y="229.57999999999998" />
            </Array>
          </mxGeometry>
        </mxCell>
        <mxCell id="u6mp_ib9Y299mShHshq8-12" value="employeeName" style="verticalAlign=bottom;endArrow=open;dashed=1;endSize=8;shadow=0;strokeWidth=1;" edge="1" parent="1" source="u6mp_ib9Y299mShHshq8-7" target="u6mp_ib9Y299mShHshq8-4">
          <mxGeometry relative="1" as="geometry">
            <mxPoint x="490" y="310" as="targetPoint" />
            <mxPoint x="580" y="330" as="sourcePoint" />
            <Array as="points">
              <mxPoint x="530" y="260" />
            </Array>
          </mxGeometry>
        </mxCell>
        <mxCell id="u6mp_ib9Y299mShHshq8-13" value="calculateSalary()" style="verticalAlign=bottom;endArrow=block;shadow=0;strokeWidth=1;" edge="1" parent="1">
          <mxGeometry relative="1" as="geometry">
            <mxPoint x="419" y="290" as="sourcePoint" />
            <mxPoint x="575" y="290" as="targetPoint" />
            <Array as="points">
              <mxPoint x="435" y="290" />
            </Array>
          </mxGeometry>
        </mxCell>
        <mxCell id="u6mp_ib9Y299mShHshq8-14" value="salary" style="verticalAlign=bottom;endArrow=open;dashed=1;endSize=8;shadow=0;strokeWidth=1;" edge="1" parent="1">
          <mxGeometry relative="1" as="geometry">
            <mxPoint x="419" y="320" as="targetPoint" />
            <mxPoint x="575" y="320" as="sourcePoint" />
            <Array as="points">
              <mxPoint x="530" y="320" />
            </Array>
          </mxGeometry>
        </mxCell>
        <mxCell id="u6mp_ib9Y299mShHshq8-15" value="ShowSalaryPopup()" style="verticalAlign=bottom;endArrow=open;dashed=1;endSize=8;shadow=0;strokeWidth=1;" edge="1" parent="1" source="u6mp_ib9Y299mShHshq8-4" target="u6mp_ib9Y299mShHshq8-2">
          <mxGeometry relative="1" as="geometry">
            <mxPoint x="250" y="320" as="targetPoint" />
            <mxPoint x="406" y="320" as="sourcePoint" />
            <Array as="points">
              <mxPoint x="361" y="320" />
            </Array>
          </mxGeometry>
        </mxCell>
      </root>
    </mxGraphModel>
  </diagram>
</mxfile>
